<svg width="13608" height="2978" viewBox="0 0 13608 2978" fill="none" xmlns="http://www.w3.org/2000/svg">
<path d="M500 1503.74C502.669 1503.74 505.336 1503.75 508 1503.77C508.017 2048.65 949.451 2492.18 1500 2507.78V2978H1000C447.715 2978 0 2537.97 0 1995.16V1503.74H500Z" fill="#1B3C53"/>
<path d="M2502 1504.12C2501.79 2031.43 2066.9 2458.86 1530.38 2459.06C1544.96 1938.12 1971.96 1518.44 2502 1504.12Z" fill="#1B3C53"/>
<path d="M558.002 1505.37C1073.91 1534.37 1485.07 1947.74 1499.6 2458.6C977.394 2442.83 558.878 2022.24 558.002 1505.37Z" fill="#1B3C53"/>
<path d="M2030 0C2582.28 0 3030 440.032 3030 982.838V1474.26H2551.57C2535.7 933.157 2084.42 499.299 1530.03 499.282C1530.01 496.663 1530 494.042 1530 491.419V0H2030Z" fill="#1B3C53"/>
<path d="M1531.65 548.426C2057.55 549.287 2485.49 960.62 2501.53 1473.87C1981.75 1459.59 1561.16 1055.48 1531.65 548.426Z" fill="#1B3C53"/>
<path d="M1498.32 548.921C1469.14 1045.94 1064.2 1443.93 558.506 1472.6C574.891 969.747 986.68 565.025 1498.32 548.921Z" fill="#1B3C53"/>
<path d="M1280 791.614C1818.89 791.614 2255 1220.86 2255 1749.45V2215.87H1780C1241.11 2215.87 805 1786.63 805 1258.03V791.614H1280ZM1530 1110.18C1309.5 1110.18 1130 1285.98 1130 1503.74C1130 1721.51 1309.5 1897.31 1530 1897.31C1750.5 1897.31 1930 1721.51 1930 1503.74C1930 1285.98 1750.5 1110.18 1530 1110.18Z" fill="#1B3C53" stroke="white" stroke-width="50"/>
<path d="M1780 791.614H2255V1258.03C2255 1786.63 1818.89 2215.87 1280 2215.87H805V1749.45C805 1220.86 1241.11 791.614 1780 791.614ZM1530 1110.18C1309.5 1110.18 1130 1285.98 1130 1503.74C1130 1721.51 1309.5 1897.31 1530 1897.31C1750.5 1897.31 1930 1721.51 1930 1503.74C1930 1285.98 1750.5 1110.18 1530 1110.18Z" fill="#1B3C53" stroke="white" stroke-width="50"/>
<path d="M3030 1995.16C3030 2537.97 2582.28 2978 2030 2978H1530V2508.2C2094.44 2508.2 2552 2058.49 2552 1503.74H3030V1995.16Z" fill="#456882"/>
<path d="M1500 491.419C1500 494.184 1499.99 496.947 1499.96 499.707C959.398 515.041 524.034 942.933 508.433 1474.22C505.624 1474.24 502.814 1474.26 500 1474.26H0V982.838C0 440.032 447.715 0 1000 0H1500V491.419Z" fill="#456882"/>
<path d="M3716 1059H4279.75C4298.5 1059 4307.25 1067.6 4307.25 1086.03V1206.43C4307.25 1224.85 4298.5 1234.68 4279.75 1234.68H3723.5C3594.75 1234.68 3557.25 1271.54 3557.25 1401.76V1576.22C3557.25 1706.44 3594.75 1744.53 3723.5 1744.53H4279.75C4298.5 1744.53 4307.25 1753.13 4307.25 1771.56V1891.96C4307.25 1910.38 4298.5 1918.98 4279.75 1918.98H3716C3463.5 1918.98 3366 1830.53 3366 1594.65V1383.34C3366 1147.46 3463.5 1059 3716 1059Z" fill="#1B3C53"/>
<path d="M4780.45 1059H5166.7C5420.45 1059 5516.7 1147.46 5516.7 1383.34V1594.65C5516.7 1830.53 5420.45 1918.98 5166.7 1918.98H4780.45C4527.95 1918.98 4430.45 1830.53 4430.45 1594.65V1383.34C4430.45 1147.46 4527.95 1059 4780.45 1059ZM4621.7 1396.85V1581.13C4621.7 1710.13 4659.2 1748.22 4787.95 1748.22H5159.2C5287.95 1748.22 5325.45 1710.13 5325.45 1581.13V1396.85C5325.45 1267.85 5287.95 1229.77 5159.2 1229.77H4787.95C4659.2 1229.77 4621.7 1267.85 4621.7 1396.85Z" fill="#1B3C53"/>
<path d="M5709.64 1059H6294.64C6565.89 1059 6677.14 1165.88 6677.14 1405.45V1572.53C6677.14 1812.1 6565.89 1918.98 6294.64 1918.98H5709.64C5684.64 1918.98 5672.14 1906.7 5672.14 1882.13V1095.86C5672.14 1071.29 5684.64 1059 5709.64 1059ZM5863.39 1246.97V1732.24C5863.39 1743.3 5868.39 1748.22 5879.64 1748.22H6289.64C6437.14 1748.22 6485.89 1701.53 6485.89 1556.56V1421.42C6485.89 1276.45 6437.14 1229.77 6289.64 1229.77H5879.64C5868.39 1229.77 5863.39 1234.68 5863.39 1246.97Z" fill="#1B3C53"/>
<path d="M7173.03 1059H7723.03C7741.78 1059 7751.78 1067.6 7751.78 1086.03V1202.74C7751.78 1221.17 7741.78 1229.77 7723.03 1229.77H7176.78C7046.78 1229.77 7010.53 1267.85 7010.53 1396.85V1409.14H7716.78C7735.53 1409.14 7744.28 1417.74 7744.28 1436.16V1533.22C7744.28 1551.65 7735.53 1560.25 7716.78 1560.25H7010.53V1581.13C7010.53 1710.13 7046.78 1748.22 7176.78 1748.22H7723.03C7741.78 1748.22 7751.78 1756.82 7751.78 1775.24V1891.96C7751.78 1910.38 7741.78 1918.98 7723.03 1918.98H7173.03C6920.53 1918.98 6823.03 1830.53 6823.03 1594.65V1383.34C6823.03 1147.46 6920.53 1059 7173.03 1059Z" fill="#1B3C53"/>
<path d="M8269.99 1059H8427.49C8443.74 1059 8449.99 1063.91 8456.24 1074.97L8822.49 1735.93C8826.24 1743.3 8829.99 1744.53 8837.49 1744.53H8843.74C8849.99 1744.53 8853.74 1743.3 8857.49 1735.93L9218.74 1074.97C9224.99 1062.69 9232.49 1059 9247.49 1059H9411.24C9431.24 1059 9434.99 1071.29 9426.24 1087.26L9016.24 1825.61C8974.99 1900.56 8937.49 1918.98 8884.99 1918.98H8812.49C8747.49 1918.98 8711.24 1900.56 8668.74 1825.61L8253.74 1087.26C8244.99 1071.29 8248.74 1059 8269.99 1059Z" fill="#1B3C53"/>
<path d="M9560.76 1059H9695.76C9714.51 1059 9723.26 1067.6 9723.26 1086.03V1891.96C9723.26 1910.38 9714.51 1918.98 9695.76 1918.98H9560.76C9542.01 1918.98 9532.01 1910.38 9532.01 1891.96V1086.03C9532.01 1067.6 9542.01 1059 9560.76 1059Z" fill="#1B3C53"/>
<path d="M10095.9 1059H10758.4C10777.2 1059 10785.9 1067.6 10785.9 1086.03V1202.74C10785.9 1221.17 10777.2 1229.77 10758.4 1229.77H10132.2C10084.7 1229.77 10065.9 1255.57 10065.9 1298.57V1340.34C10065.9 1385.79 10087.2 1409.14 10130.9 1409.14H10599.7C10743.4 1409.14 10818.4 1485.31 10818.4 1620.45V1718.73C10818.4 1837.9 10748.4 1918.98 10597.2 1918.98H9904.67C9885.92 1918.98 9875.92 1910.38 9875.92 1891.96V1775.24C9875.92 1756.82 9885.92 1748.22 9904.67 1748.22H10560.9C10608.4 1748.22 10627.2 1722.42 10627.2 1679.42V1629.05C10627.2 1583.59 10605.9 1560.25 10562.2 1560.25H10093.4C9949.67 1560.25 9874.67 1484.08 9874.67 1348.94V1259.25C9874.67 1140.08 9944.67 1059 10095.9 1059Z" fill="#1B3C53"/>
<path d="M10990.2 1059H11125.2C11143.9 1059 11152.7 1067.6 11152.7 1086.03V1891.96C11152.7 1910.38 11143.9 1918.98 11125.2 1918.98H10990.2C10971.4 1918.98 10961.4 1910.38 10961.4 1891.96V1086.03C10961.4 1067.6 10971.4 1059 10990.2 1059Z" fill="#1B3C53"/>
<path d="M11659.1 1059H12045.4C12299.1 1059 12395.4 1147.46 12395.4 1383.34V1594.65C12395.4 1830.53 12299.1 1918.98 12045.4 1918.98H11659.1C11406.6 1918.98 11309.1 1830.53 11309.1 1594.65V1383.34C11309.1 1147.46 11406.6 1059 11659.1 1059ZM11500.4 1396.85V1581.13C11500.4 1710.13 11537.9 1748.22 11666.6 1748.22H12037.9C12166.6 1748.22 12204.1 1710.13 12204.1 1581.13V1396.85C12204.1 1267.85 12166.6 1229.77 12037.9 1229.77H11666.6C11537.9 1229.77 11500.4 1267.85 11500.4 1396.85Z" fill="#1B3C53"/>
<path d="M12663.3 1059H12773.3C12853.3 1059 12870.8 1068.83 12918.3 1131.48L13383.3 1731.02C13387.1 1737.16 13392.1 1739.62 13399.6 1739.62H13410.8C13417.1 1739.62 13420.8 1735.93 13420.8 1727.33V1086.03C13420.8 1067.6 13429.6 1059 13448.3 1059H13579.6C13598.3 1059 13607.1 1067.6 13607.1 1086.03V1791.21C13607.1 1890.73 13570.8 1918.98 13494.6 1918.98H13387.1C13310.8 1918.98 13292.1 1911.61 13242.1 1846.5L12775.8 1246.97C12770.8 1240.83 12767.1 1238.37 12759.6 1238.37H12748.3C12740.8 1238.37 12738.3 1242.05 12738.3 1250.65V1891.96C12738.3 1910.38 12729.6 1918.98 12710.8 1918.98H12579.6C12560.8 1918.98 12550.8 1910.38 12550.8 1891.96V1186.77C12550.8 1087.26 12587.1 1059 12663.3 1059Z" fill="#1B3C53"/>
</svg>
