<svg width="3030" height="2978" viewBox="0 0 3030 2978" fill="none" xmlns="http://www.w3.org/2000/svg">
<path d="M500 1503.74C502.669 1503.74 505.336 1503.75 508 1503.77C508.017 2048.65 949.451 2492.18 1500 2507.78V2978H1000C447.715 2978 0 2537.97 0 1995.16V1503.74H500Z" fill="#1B3C53"/>
<path d="M2502 1504.12C2501.79 2031.43 2066.9 2458.86 1530.38 2459.06C1544.96 1938.12 1971.96 1518.44 2502 1504.12Z" fill="#1B3C53"/>
<path d="M558.002 1505.37C1073.91 1534.37 1485.07 1947.74 1499.6 2458.6C977.394 2442.83 558.878 2022.24 558.002 1505.37Z" fill="#1B3C53"/>
<path d="M2030 0C2582.28 0 3030 440.032 3030 982.838V1474.26H2551.57C2535.7 933.157 2084.42 499.299 1530.03 499.282C1530.01 496.663 1530 494.042 1530 491.419V0H2030Z" fill="#1B3C53"/>
<path d="M1531.65 548.426C2057.55 549.287 2485.49 960.62 2501.53 1473.87C1981.75 1459.59 1561.16 1055.48 1531.65 548.426Z" fill="#1B3C53"/>
<path d="M1498.32 548.921C1469.14 1045.94 1064.2 1443.93 558.506 1472.6C574.891 969.747 986.68 565.025 1498.32 548.921Z" fill="#1B3C53"/>
<path d="M1280 791.614C1818.89 791.614 2255 1220.86 2255 1749.45V2215.87H1780C1241.11 2215.87 805 1786.63 805 1258.03V791.614H1280ZM1530 1110.18C1309.5 1110.18 1130 1285.98 1130 1503.74C1130 1721.51 1309.5 1897.31 1530 1897.31C1750.5 1897.31 1930 1721.51 1930 1503.74C1930 1285.98 1750.5 1110.18 1530 1110.18Z" fill="#1B3C53" stroke="white" stroke-width="50"/>
<path d="M1780 791.614H2255V1258.03C2255 1786.63 1818.89 2215.87 1280 2215.87H805V1749.45C805 1220.86 1241.11 791.614 1780 791.614ZM1530 1110.18C1309.5 1110.18 1130 1285.98 1130 1503.74C1130 1721.51 1309.5 1897.31 1530 1897.31C1750.5 1897.31 1930 1721.51 1930 1503.74C1930 1285.98 1750.5 1110.18 1530 1110.18Z" fill="#1B3C53" stroke="white" stroke-width="50"/>
<path d="M3030 1995.16C3030 2537.97 2582.28 2978 2030 2978H1530V2508.2C2094.44 2508.2 2552 2058.49 2552 1503.74H3030V1995.16Z" fill="#456882"/>
<path d="M1500 491.419C1500 494.184 1499.99 496.947 1499.96 499.707C959.398 515.041 524.034 942.933 508.433 1474.22C505.624 1474.24 502.814 1474.26 500 1474.26H0V982.838C0 440.032 447.715 0 1000 0H1500V491.419Z" fill="#456882"/>
</svg>
